<svg width="206" height="40" viewBox="0 0 206 40" fill="none" xmlns="http://www.w3.org/2000/svg">
<g clip-path="url(#clip0_1_2)">
<rect width="206" height="40" rx="5" fill="#5865F2"/>
<path d="M59.94 28.176C58.8253 28.176 57.85 27.9707 57.014 27.56C56.1927 27.1347 55.5547 26.548 55.1 25.8C54.6453 25.0373 54.418 24.1573 54.418 23.16V21.774C54.418 21.7007 54.44 21.642 54.484 21.598C54.5427 21.5393 54.6087 21.51 54.682 21.51H57.256C57.3293 21.51 57.388 21.5393 57.432 21.598C57.4907 21.642 57.52 21.7007 57.52 21.774V23.16C57.52 23.864 57.7327 24.436 58.158 24.876C58.598 25.3013 59.192 25.514 59.94 25.514C60.6587 25.514 61.2453 25.3013 61.7 24.876C62.1693 24.436 62.404 23.864 62.404 23.16V12.864C62.404 12.7907 62.426 12.732 62.47 12.688C62.5287 12.6293 62.5947 12.6 62.668 12.6H65.22C65.2933 12.6 65.352 12.6293 65.396 12.688C65.4547 12.732 65.484 12.7907 65.484 12.864V23.16C65.484 24.1573 65.2493 25.0373 64.78 25.8C64.3107 26.548 63.658 27.1347 62.822 27.56C61.986 27.9707 61.0253 28.176 59.94 28.176ZM73.5173 28.242C72.3733 28.242 71.3613 28.0073 70.4813 27.538C69.6159 27.0687 68.9413 26.416 68.4573 25.58C67.9733 24.7293 67.7313 23.754 67.7313 22.654V17.946C67.7313 16.8607 67.9733 15.9 68.4573 15.064C68.9413 14.228 69.6159 13.5827 70.4813 13.128C71.3613 12.6587 72.3733 12.424 73.5173 12.424C74.6759 12.424 75.6879 12.6587 76.5533 13.128C77.4333 13.5827 78.1153 14.228 78.5993 15.064C79.0833 15.9 79.3253 16.8607 79.3253 17.946V22.654C79.3253 23.754 79.0833 24.7293 78.5993 25.58C78.1153 26.4307 77.4333 27.0907 76.5533 27.56C75.6879 28.0147 74.6759 28.242 73.5173 28.242ZM73.5173 25.58C74.3239 25.58 74.9766 25.3233 75.4753 24.81C75.9739 24.2967 76.2233 23.6147 76.2233 22.764V17.924C76.2233 17.0733 75.9739 16.3913 75.4753 15.878C74.9913 15.35 74.3386 15.086 73.5173 15.086C72.7106 15.086 72.0579 15.35 71.5593 15.878C71.0753 16.3913 70.8333 17.0733 70.8333 17.924V22.764C70.8333 23.6147 71.0753 24.2967 71.5593 24.81C72.0579 25.3233 72.7106 25.58 73.5173 25.58ZM81.9673 28C81.894 28 81.828 27.978 81.7693 27.934C81.7253 27.8753 81.7033 27.8093 81.7033 27.736V12.864C81.7033 12.7907 81.7253 12.732 81.7693 12.688C81.828 12.6293 81.894 12.6 81.9673 12.6H84.5413C84.6147 12.6 84.6733 12.6293 84.7173 12.688C84.776 12.732 84.8053 12.7907 84.8053 12.864V27.736C84.8053 27.8093 84.776 27.8753 84.7173 27.934C84.6733 27.978 84.6147 28 84.5413 28H81.9673ZM96.3266 12.864C96.3266 12.7907 96.3486 12.732 96.3926 12.688C96.4513 12.6293 96.5173 12.6 96.5906 12.6H99.1646C99.238 12.6 99.2966 12.6293 99.3406 12.688C99.3993 12.732 99.4286 12.7907 99.4286 12.864V27.736C99.4286 27.8093 99.3993 27.8753 99.3406 27.934C99.2966 27.978 99.238 28 99.1646 28H96.6786C96.532 28 96.4293 27.9413 96.3706 27.824L90.6726 18.408C90.6433 18.364 90.614 18.3493 90.5846 18.364C90.5553 18.364 90.5406 18.3933 90.5406 18.452L90.5846 27.736C90.5846 27.8093 90.5553 27.8753 90.4966 27.934C90.4526 27.978 90.394 28 90.3206 28H87.7466C87.6733 28 87.6073 27.978 87.5486 27.934C87.5046 27.8753 87.4826 27.8093 87.4826 27.736V12.864C87.4826 12.7907 87.5046 12.732 87.5486 12.688C87.6073 12.6293 87.6733 12.6 87.7466 12.6H90.2326C90.3793 12.6 90.482 12.6587 90.5406 12.776L96.2166 22.148C96.246 22.192 96.2753 22.214 96.3046 22.214C96.334 22.1993 96.3486 22.1627 96.3486 22.104L96.3266 12.864ZM106.782 28C106.708 28 106.642 27.978 106.584 27.934C106.54 27.8753 106.518 27.8093 106.518 27.736V12.864C106.518 12.7907 106.54 12.732 106.584 12.688C106.642 12.6293 106.708 12.6 106.782 12.6H112.282C113.382 12.6 114.342 12.798 115.164 13.194C116 13.5753 116.645 14.118 117.1 14.822C117.554 15.526 117.782 16.34 117.782 17.264V23.336C117.782 24.26 117.554 25.074 117.1 25.778C116.645 26.482 116 27.032 115.164 27.428C114.342 27.8093 113.382 28 112.282 28H106.782ZM109.62 25.228C109.62 25.3013 109.656 25.338 109.73 25.338H112.392C113.066 25.338 113.609 25.1107 114.02 24.656C114.445 24.2013 114.665 23.5927 114.68 22.83V17.77C114.68 17.0073 114.467 16.3987 114.042 15.944C113.631 15.4893 113.074 15.262 112.37 15.262H109.73C109.656 15.262 109.62 15.2987 109.62 15.372V25.228ZM120.381 28C120.308 28 120.242 27.978 120.183 27.934C120.139 27.8753 120.117 27.8093 120.117 27.736V12.864C120.117 12.7907 120.139 12.732 120.183 12.688C120.242 12.6293 120.308 12.6 120.381 12.6H122.955C123.029 12.6 123.087 12.6293 123.131 12.688C123.19 12.732 123.219 12.7907 123.219 12.864V27.736C123.219 27.8093 123.19 27.8753 123.131 27.934C123.087 27.978 123.029 28 122.955 28H120.381ZM131.177 28.176C130.003 28.176 128.977 27.9927 128.097 27.626C127.217 27.2447 126.535 26.7093 126.051 26.02C125.581 25.316 125.347 24.502 125.347 23.578V23.094C125.347 23.0207 125.369 22.962 125.413 22.918C125.471 22.8593 125.537 22.83 125.611 22.83H128.119C128.192 22.83 128.251 22.8593 128.295 22.918C128.353 22.962 128.383 23.0207 128.383 23.094V23.424C128.383 24.0107 128.654 24.5093 129.197 24.92C129.739 25.316 130.473 25.514 131.397 25.514C132.174 25.514 132.753 25.3527 133.135 25.03C133.516 24.6927 133.707 24.282 133.707 23.798C133.707 23.446 133.589 23.1527 133.355 22.918C133.12 22.6687 132.797 22.456 132.387 22.28C131.991 22.0893 131.353 21.8327 130.473 21.51C129.49 21.1727 128.654 20.828 127.965 20.476C127.29 20.124 126.718 19.6473 126.249 19.046C125.794 18.43 125.567 17.6747 125.567 16.78C125.567 15.9 125.794 15.13 126.249 14.47C126.703 13.81 127.334 13.304 128.141 12.952C128.947 12.6 129.879 12.424 130.935 12.424C132.049 12.424 133.039 12.622 133.905 13.018C134.785 13.414 135.467 13.9713 135.951 14.69C136.449 15.394 136.699 16.2153 136.699 17.154V17.484C136.699 17.5573 136.669 17.6233 136.611 17.682C136.567 17.726 136.508 17.748 136.435 17.748H133.905C133.831 17.748 133.765 17.726 133.707 17.682C133.663 17.6233 133.641 17.5573 133.641 17.484V17.308C133.641 16.692 133.384 16.1713 132.871 15.746C132.372 15.306 131.683 15.086 130.803 15.086C130.113 15.086 129.571 15.2327 129.175 15.526C128.793 15.8193 128.603 16.2227 128.603 16.736C128.603 17.1027 128.713 17.4107 128.933 17.66C129.167 17.9093 129.505 18.1367 129.945 18.342C130.399 18.5327 131.096 18.7967 132.035 19.134C133.076 19.5153 133.89 19.8527 134.477 20.146C135.078 20.4393 135.613 20.8793 136.083 21.466C136.567 22.038 136.809 22.786 136.809 23.71C136.809 25.0887 136.303 26.1813 135.291 26.988C134.279 27.78 132.907 28.176 131.177 28.176ZM144.393 28.176C143.249 28.176 142.244 27.956 141.379 27.516C140.513 27.0613 139.846 26.4307 139.377 25.624C138.907 24.8173 138.673 23.886 138.673 22.83V17.748C138.673 16.692 138.907 15.7607 139.377 14.954C139.846 14.1473 140.513 13.524 141.379 13.084C142.244 12.644 143.249 12.424 144.393 12.424C145.522 12.424 146.512 12.6367 147.363 13.062C148.228 13.4727 148.895 14.0667 149.365 14.844C149.849 15.6067 150.091 16.494 150.091 17.506C150.091 17.638 150.003 17.7187 149.827 17.748L147.253 17.902H147.209C147.062 17.902 146.989 17.8213 146.989 17.66C146.989 16.8827 146.747 16.2593 146.263 15.79C145.793 15.3207 145.17 15.086 144.393 15.086C143.601 15.086 142.963 15.3207 142.479 15.79C142.009 16.2593 141.775 16.8827 141.775 17.66V22.962C141.775 23.7247 142.009 24.3407 142.479 24.81C142.963 25.2793 143.601 25.514 144.393 25.514C145.17 25.514 145.793 25.2793 146.263 24.81C146.747 24.3407 146.989 23.7247 146.989 22.962C146.989 22.8007 147.077 22.72 147.253 22.72L149.827 22.83C149.9 22.83 149.959 22.852 150.003 22.896C150.061 22.94 150.091 22.9913 150.091 23.05C150.091 24.062 149.849 24.9567 149.365 25.734C148.895 26.5113 148.228 27.1127 147.363 27.538C146.512 27.9633 145.522 28.176 144.393 28.176ZM157.843 28.242C156.699 28.242 155.687 28.0073 154.807 27.538C153.942 27.0687 153.267 26.416 152.783 25.58C152.299 24.7293 152.057 23.754 152.057 22.654V17.946C152.057 16.8607 152.299 15.9 152.783 15.064C153.267 14.228 153.942 13.5827 154.807 13.128C155.687 12.6587 156.699 12.424 157.843 12.424C159.002 12.424 160.014 12.6587 160.879 13.128C161.759 13.5827 162.441 14.228 162.925 15.064C163.409 15.9 163.651 16.8607 163.651 17.946V22.654C163.651 23.754 163.409 24.7293 162.925 25.58C162.441 26.4307 161.759 27.0907 160.879 27.56C160.014 28.0147 159.002 28.242 157.843 28.242ZM157.843 25.58C158.65 25.58 159.303 25.3233 159.801 24.81C160.3 24.2967 160.549 23.6147 160.549 22.764V17.924C160.549 17.0733 160.3 16.3913 159.801 15.878C159.317 15.35 158.665 15.086 157.843 15.086C157.037 15.086 156.384 15.35 155.885 15.878C155.401 16.3913 155.159 17.0733 155.159 17.924V22.764C155.159 23.6147 155.401 24.2967 155.885 24.81C156.384 25.3233 157.037 25.58 157.843 25.58ZM174.478 28C174.331 28 174.228 27.934 174.17 27.802L171.42 21.708C171.39 21.6493 171.346 21.62 171.288 21.62H169.242C169.168 21.62 169.132 21.6567 169.132 21.73V27.736C169.132 27.8093 169.102 27.8753 169.044 27.934C169 27.978 168.941 28 168.868 28H166.294C166.22 28 166.154 27.978 166.096 27.934C166.052 27.8753 166.03 27.8093 166.03 27.736V12.864C166.03 12.7907 166.052 12.732 166.096 12.688C166.154 12.6293 166.22 12.6 166.294 12.6H172.586C173.524 12.6 174.346 12.7907 175.05 13.172C175.768 13.5533 176.318 14.096 176.7 14.8C177.096 15.504 177.294 16.318 177.294 17.242C177.294 18.2393 177.044 19.0973 176.546 19.816C176.047 20.52 175.35 21.0187 174.456 21.312C174.382 21.3413 174.36 21.3927 174.39 21.466L177.382 27.692C177.411 27.7507 177.426 27.7947 177.426 27.824C177.426 27.9413 177.345 28 177.184 28H174.478ZM169.242 15.262C169.168 15.262 169.132 15.2987 169.132 15.372V19.134C169.132 19.2073 169.168 19.244 169.242 19.244H172.124C172.74 19.244 173.238 19.0607 173.62 18.694C174.016 18.3273 174.214 17.8507 174.214 17.264C174.214 16.6773 174.016 16.2007 173.62 15.834C173.238 15.4527 172.74 15.262 172.124 15.262H169.242ZM179.807 28C179.734 28 179.668 27.978 179.609 27.934C179.565 27.8753 179.543 27.8093 179.543 27.736V12.864C179.543 12.7907 179.565 12.732 179.609 12.688C179.668 12.6293 179.734 12.6 179.807 12.6H185.307C186.407 12.6 187.368 12.798 188.189 13.194C189.025 13.5753 189.671 14.118 190.125 14.822C190.58 15.526 190.807 16.34 190.807 17.264V23.336C190.807 24.26 190.58 25.074 190.125 25.778C189.671 26.482 189.025 27.032 188.189 27.428C187.368 27.8093 186.407 28 185.307 28H179.807ZM182.645 25.228C182.645 25.3013 182.682 25.338 182.755 25.338H185.417C186.092 25.338 186.635 25.1107 187.045 24.656C187.471 24.2013 187.691 23.5927 187.705 22.83V17.77C187.705 17.0073 187.493 16.3987 187.067 15.944C186.657 15.4893 186.099 15.262 185.395 15.262H182.755C182.682 15.262 182.645 15.2987 182.645 15.372V25.228Z" fill="white"/>
<path d="M31.3842 10.0746C29.5837 9.10541 27.6586 8.40106 25.6459 8C25.3987 8.51415 25.1099 9.20569 24.9108 9.7558C22.7713 9.38562 20.6514 9.38562 18.5512 9.7558C18.3521 9.20569 18.0568 8.51415 17.8074 8C15.7925 8.40106 13.8652 9.108 12.0647 10.0797C8.43313 16.3933 7.44867 22.5501 7.9409 28.6195C10.3495 30.6889 12.6838 31.946 14.9787 32.7686C15.5453 31.8714 16.0507 30.9177 16.486 29.9125C15.6569 29.5501 14.8627 29.1028 14.1124 28.5835C14.3115 28.4138 14.5062 28.2364 14.6943 28.0539C19.2709 30.5166 24.2436 30.5166 28.7655 28.0539C28.9559 28.2364 29.1505 28.4138 29.3474 28.5835C28.5949 29.1053 27.7986 29.5526 26.9694 29.9151C27.4048 30.9177 27.908 31.874 28.4767 32.7711C30.7738 31.9485 33.1103 30.6915 35.5189 28.6195C36.0965 21.5835 34.5323 15.4833 31.3842 10.0746ZM17.1095 24.8869C15.7356 24.8869 14.609 23.4113 14.609 21.6144C14.609 19.8175 15.7116 18.3393 17.1095 18.3393C18.5075 18.3393 19.6341 19.8149 19.61 21.6144C19.6122 23.4113 18.5075 24.8869 17.1095 24.8869ZM26.3503 24.8869C24.9765 24.8869 23.8498 23.4113 23.8498 21.6144C23.8498 19.8175 24.9524 18.3393 26.3503 18.3393C27.7482 18.3393 28.8749 19.8149 28.8509 21.6144C28.8509 23.4113 27.7482 24.8869 26.3503 24.8869Z" fill="white"/>
</g>
<defs>
<clipPath id="clip0_1_2">
<rect width="206" height="40" fill="white"/>
</clipPath>
</defs>
</svg>
