<svg width="174" height="27" viewBox="0 0 174 27" fill="none" xmlns="http://www.w3.org/2000/svg">
<path fill-rule="evenodd" clip-rule="evenodd" d="M2 5V22C2 23.66 3.34 25 5 25H160.5C166.848 25 172 19.85 172 13.5C172 7.148 166.852 2 160.5 2H5C3.34 2 2 3.34 2 5Z" fill="url(#paint0_linear_1_23)"/>
<path fill-rule="evenodd" clip-rule="evenodd" d="M2 5V22C2 23.66 3.34 25 5 25H160.5C166.848 25 172 19.85 172 13.5C172 7.148 166.852 2 160.5 2H5C3.34 2 2 3.34 2 5ZM0 5C0 2.238 2.233 0 5 0H160.5C167.956 0 174 6.043 174 13.5C174 20.956 167.95 27 160.5 27H5C2.238 27 0 24.768 0 22V13.5V5Z" fill="#0058A5"/>
<path d="M159.5 23C164.747 23 169 18.7467 169 13.5C169 8.25329 164.747 4 159.5 4C154.253 4 150 8.25329 150 13.5C150 18.7467 154.253 23 159.5 23Z" fill="url(#paint1_linear_1_23)"/>
<path fill-rule="evenodd" clip-rule="evenodd" d="M163 13.5L158 18V9" fill="white"/>
<path d="M10.1623 19V8.81818H12.315V17.2251H16.68V19H10.1623ZM20.2434 19.1442C19.7562 19.1442 19.322 19.0597 18.9409 18.8906C18.5597 18.7183 18.2581 18.4647 18.036 18.13C17.8173 17.7919 17.7079 17.371 17.7079 16.8672C17.7079 16.4429 17.7858 16.0866 17.9416 15.7983C18.0974 15.5099 18.3095 15.2779 18.5779 15.1023C18.8464 14.9266 19.1513 14.794 19.4927 14.7045C19.8374 14.6151 20.1987 14.5521 20.5765 14.5156C21.0207 14.4692 21.3786 14.4261 21.6504 14.3864C21.9222 14.3433 22.1194 14.2803 22.242 14.1974C22.3646 14.1146 22.426 13.992 22.426 13.8295V13.7997C22.426 13.4848 22.3265 13.2412 22.1277 13.0689C21.9321 12.8965 21.6537 12.8104 21.2924 12.8104C20.9113 12.8104 20.608 12.8949 20.3826 13.0639C20.1573 13.2296 20.0081 13.4384 19.9352 13.6903L17.9764 13.5312C18.0758 13.0672 18.2714 12.6662 18.563 12.3281C18.8547 11.9867 19.2309 11.7249 19.6916 11.5426C20.1556 11.357 20.6925 11.2642 21.3024 11.2642C21.7266 11.2642 22.1326 11.3139 22.5204 11.4134C22.9115 11.5128 23.2579 11.6669 23.5595 11.8757C23.8644 12.0845 24.1047 12.353 24.2804 12.6811C24.456 13.0059 24.5439 13.3954 24.5439 13.8494V19H22.5353V17.9411H22.4757C22.353 18.1797 22.189 18.3902 21.9835 18.5724C21.778 18.7514 21.5311 18.8923 21.2427 18.995C20.9544 19.0945 20.6213 19.1442 20.2434 19.1442ZM20.85 17.6825C21.1615 17.6825 21.4366 17.6212 21.6752 17.4986C21.9139 17.3726 22.1011 17.2036 22.237 16.9915C22.3729 16.7794 22.4409 16.5391 22.4409 16.2706V15.4602C22.3746 15.5033 22.2834 15.5431 22.1674 15.5795C22.0547 15.6127 21.9271 15.6442 21.7846 15.674C21.6421 15.7005 21.4996 15.7254 21.3571 15.7486C21.2145 15.7685 21.0853 15.7867 20.9693 15.8033C20.7207 15.8397 20.5036 15.8977 20.318 15.9773C20.1324 16.0568 19.9882 16.1645 19.8855 16.3004C19.7827 16.433 19.7314 16.5987 19.7314 16.7976C19.7314 17.0859 19.8358 17.3063 20.0446 17.4588C20.2567 17.608 20.5252 17.6825 20.85 17.6825ZM31.084 15.7486V11.3636H33.2019V19H31.1685V17.6129H31.089C30.9166 18.0604 30.6299 18.42 30.2289 18.6918C29.8311 18.9635 29.3456 19.0994 28.7722 19.0994C28.2618 19.0994 27.8127 18.9834 27.4249 18.7514C27.0371 18.5194 26.7338 18.1896 26.5151 17.7621C26.2997 17.3345 26.1903 16.8224 26.187 16.2259V11.3636H28.3049V15.848C28.3082 16.2988 28.4292 16.6551 28.6678 16.9169C28.9064 17.1787 29.2263 17.3097 29.6273 17.3097C29.8825 17.3097 30.1212 17.2517 30.3432 17.1357C30.5653 17.0163 30.7443 16.8407 30.8801 16.6087C31.0194 16.3767 31.0873 16.09 31.084 15.7486ZM37.0138 14.5852V19H34.896V11.3636H36.9144V12.7109H37.0039C37.1729 12.2668 37.4563 11.9155 37.854 11.657C38.2518 11.3951 38.734 11.2642 39.3008 11.2642C39.8311 11.2642 40.2934 11.3802 40.6879 11.6122C41.0823 11.8442 41.3888 12.1757 41.6076 12.6065C41.8263 13.0341 41.9357 13.5445 41.9357 14.1378V19H39.8178V14.5156C39.8211 14.0483 39.7018 13.6837 39.4599 13.4219C39.2179 13.1567 38.8848 13.0241 38.4606 13.0241C38.1755 13.0241 37.9237 13.0855 37.7049 13.2081C37.4895 13.3307 37.3204 13.5097 37.1978 13.745C37.0785 13.977 37.0172 14.2571 37.0138 14.5852ZM47.0552 19.1491C46.273 19.1491 45.6002 18.9834 45.0368 18.652C44.4766 18.3172 44.0458 17.8532 43.7441 17.2599C43.4458 16.6667 43.2967 15.9839 43.2967 15.2116C43.2967 14.4295 43.4475 13.7434 43.7491 13.1534C44.054 12.5601 44.4866 12.0978 45.0467 11.7663C45.6068 11.4316 46.273 11.2642 47.0453 11.2642C47.7115 11.2642 48.2948 11.3852 48.7953 11.6271C49.2958 11.8691 49.6918 12.2088 49.9835 12.6463C50.2752 13.0838 50.4359 13.5975 50.4657 14.1875H48.4672C48.4108 13.8063 48.2617 13.4998 48.0197 13.2678C47.7811 13.0324 47.4679 12.9148 47.0801 12.9148C46.752 12.9148 46.4653 13.0043 46.22 13.1832C45.978 13.3589 45.7891 13.6158 45.6532 13.9538C45.5173 14.2919 45.4494 14.7012 45.4494 15.1818C45.4494 15.669 45.5157 16.0833 45.6483 16.4247C45.7842 16.7661 45.9747 17.0263 46.22 17.2053C46.4653 17.3842 46.752 17.4737 47.0801 17.4737C47.322 17.4737 47.5391 17.424 47.7314 17.3246C47.9269 17.2251 48.0877 17.081 48.2136 16.892C48.3429 16.6998 48.4274 16.4695 48.4672 16.201H50.4657C50.4326 16.7843 50.2735 17.2981 49.9885 17.7422C49.7067 18.183 49.3173 18.5277 48.8201 18.7763C48.323 19.0249 47.7347 19.1491 47.0552 19.1491ZM53.9396 14.5852V19H51.8217V8.81818H53.88V12.7109H53.9695C54.1418 12.2602 54.4202 11.9072 54.8047 11.652C55.1892 11.3935 55.6714 11.2642 56.2514 11.2642C56.7817 11.2642 57.2441 11.3802 57.6385 11.6122C58.0362 11.8409 58.3445 12.1707 58.5632 12.6016C58.7853 13.0291 58.8947 13.5412 58.8913 14.1378V19H56.7734V14.5156C56.7768 14.045 56.6574 13.6787 56.4155 13.4169C56.1768 13.1551 55.8421 13.0241 55.4112 13.0241C55.1229 13.0241 54.8677 13.0855 54.6456 13.2081C54.4268 13.3307 54.2545 13.5097 54.1286 13.745C54.0059 13.977 53.9429 14.2571 53.9396 14.5852ZM69.3615 11.7464C69.3217 11.3454 69.151 11.0339 68.8494 10.8118C68.5478 10.5897 68.1385 10.4787 67.6214 10.4787C67.2701 10.4787 66.9735 10.5284 66.7315 10.6278C66.4896 10.724 66.304 10.8582 66.1747 11.0305C66.0488 11.2029 65.9858 11.3984 65.9858 11.6172C65.9792 11.7995 66.0173 11.9586 66.1001 12.0945C66.1863 12.2304 66.304 12.348 66.4531 12.4474C66.6023 12.5436 66.7746 12.6281 66.9702 12.701C67.1657 12.7706 67.3745 12.8303 67.5966 12.88L68.5114 13.0987C68.9555 13.1982 69.3632 13.3307 69.7344 13.4964C70.1056 13.6622 70.4271 13.866 70.6989 14.108C70.9706 14.3499 71.1811 14.6349 71.3303 14.9631C71.4827 15.2912 71.5606 15.6674 71.5639 16.0916C71.5606 16.7147 71.4015 17.255 71.0866 17.7124C70.7751 18.1664 70.3243 18.5194 69.7344 18.7713C69.1477 19.0199 68.4401 19.1442 67.6115 19.1442C66.7895 19.1442 66.0736 19.0182 65.4638 18.7663C64.8572 18.5144 64.3833 18.1416 64.0419 17.6477C63.7038 17.1506 63.5265 16.5357 63.5099 15.8033H65.593C65.6162 16.1446 65.714 16.4297 65.8864 16.6584C66.062 16.8838 66.2957 17.0545 66.5874 17.1705C66.8823 17.2831 67.2154 17.3395 67.5866 17.3395C67.9512 17.3395 68.2678 17.2865 68.5362 17.1804C68.808 17.0743 69.0185 16.9268 69.1676 16.7379C69.3168 16.549 69.3913 16.3319 69.3913 16.0866C69.3913 15.858 69.3234 15.6657 69.1875 15.5099C69.0549 15.3542 68.8594 15.2216 68.6009 15.1122C68.3456 15.0028 68.0324 14.9034 67.6612 14.8139L66.5526 14.5355C65.6941 14.3267 65.0163 14.0002 64.5192 13.5561C64.022 13.112 63.7751 12.5137 63.7784 11.7614C63.7751 11.1449 63.9392 10.6063 64.2706 10.1456C64.6054 9.6849 65.0644 9.32528 65.6477 9.06676C66.2311 8.80824 66.8939 8.67898 67.6364 8.67898C68.392 8.67898 69.0516 8.80824 69.6151 9.06676C70.1818 9.32528 70.6226 9.6849 70.9375 10.1456C71.2524 10.6063 71.4148 11.1399 71.4247 11.7464H69.3615ZM77.0339 11.3636V12.9545H72.4352V11.3636H77.0339ZM73.4792 9.53409H75.5971V16.6534C75.5971 16.849 75.627 17.0014 75.6866 17.1108C75.7463 17.2169 75.8291 17.2914 75.9352 17.3345C76.0446 17.3776 76.1705 17.3991 76.313 17.3991C76.4125 17.3991 76.5119 17.3909 76.6113 17.3743C76.7108 17.3544 76.787 17.3395 76.84 17.3295L77.1731 18.9055C77.0671 18.9387 76.9179 18.9768 76.7257 19.0199C76.5334 19.0663 76.2998 19.0945 76.0247 19.1044C75.5143 19.1243 75.0668 19.0563 74.6824 18.9006C74.3012 18.7448 74.0046 18.5028 73.7924 18.1747C73.5803 17.8466 73.4759 17.4323 73.4792 16.9318V9.53409ZM80.5911 19.1442C80.1039 19.1442 79.6697 19.0597 79.2885 18.8906C78.9074 18.7183 78.6058 18.4647 78.3837 18.13C78.165 17.7919 78.0556 17.371 78.0556 16.8672C78.0556 16.4429 78.1335 16.0866 78.2892 15.7983C78.445 15.5099 78.6571 15.2779 78.9256 15.1023C79.1941 14.9266 79.499 14.794 79.8404 14.7045C80.1851 14.6151 80.5463 14.5521 80.9242 14.5156C81.3683 14.4692 81.7263 14.4261 81.998 14.3864C82.2698 14.3433 82.467 14.2803 82.5897 14.1974C82.7123 14.1146 82.7736 13.992 82.7736 13.8295V13.7997C82.7736 13.4848 82.6742 13.2412 82.4753 13.0689C82.2798 12.8965 82.0014 12.8104 81.6401 12.8104C81.2589 12.8104 80.9557 12.8949 80.7303 13.0639C80.5049 13.2296 80.3558 13.4384 80.2828 13.6903L78.324 13.5312C78.4235 13.0672 78.619 12.6662 78.9107 12.3281C79.2024 11.9867 79.5785 11.7249 80.0392 11.5426C80.5033 11.357 81.0402 11.2642 81.65 11.2642C82.0743 11.2642 82.4803 11.3139 82.8681 11.4134C83.2592 11.5128 83.6055 11.6669 83.9071 11.8757C84.2121 12.0845 84.4524 12.353 84.628 12.6811C84.8037 13.0059 84.8915 13.3954 84.8915 13.8494V19H82.883V17.9411H82.8233C82.7007 18.1797 82.5366 18.3902 82.3311 18.5724C82.1257 18.7514 81.8787 18.8923 81.5904 18.995C81.302 19.0945 80.9689 19.1442 80.5911 19.1442ZM81.1976 17.6825C81.5092 17.6825 81.7843 17.6212 82.0229 17.4986C82.2615 17.3726 82.4488 17.2036 82.5847 16.9915C82.7206 16.7794 82.7885 16.5391 82.7885 16.2706V15.4602C82.7222 15.5033 82.6311 15.5431 82.5151 15.5795C82.4024 15.6127 82.2748 15.6442 82.1323 15.674C81.9898 15.7005 81.8472 15.7254 81.7047 15.7486C81.5622 15.7685 81.4329 15.7867 81.3169 15.8033C81.0684 15.8397 80.8513 15.8977 80.6657 15.9773C80.4801 16.0568 80.3359 16.1645 80.2331 16.3004C80.1304 16.433 80.079 16.5987 80.079 16.7976C80.079 17.0859 80.1834 17.3063 80.3922 17.4588C80.6043 17.608 80.8728 17.6825 81.1976 17.6825ZM89.9849 19.1491C89.2027 19.1491 88.5299 18.9834 87.9664 18.652C87.4063 18.3172 86.9754 17.8532 86.6738 17.2599C86.3755 16.6667 86.2264 15.9839 86.2264 15.2116C86.2264 14.4295 86.3772 13.7434 86.6788 13.1534C86.9837 12.5601 87.4163 12.0978 87.9764 11.7663C88.5365 11.4316 89.2027 11.2642 89.975 11.2642C90.6412 11.2642 91.2245 11.3852 91.725 11.6271C92.2254 11.8691 92.6215 12.2088 92.9132 12.6463C93.2048 13.0838 93.3656 13.5975 93.3954 14.1875H91.3968C91.3405 13.8063 91.1913 13.4998 90.9494 13.2678C90.7108 13.0324 90.3975 12.9148 90.0098 12.9148C89.6816 12.9148 89.3949 13.0043 89.1497 13.1832C88.9077 13.3589 88.7188 13.6158 88.5829 13.9538C88.447 14.2919 88.3791 14.7012 88.3791 15.1818C88.3791 15.669 88.4454 16.0833 88.5779 16.4247C88.7138 16.7661 88.9044 17.0263 89.1497 17.2053C89.3949 17.3842 89.6816 17.4737 90.0098 17.4737C90.2517 17.4737 90.4688 17.424 90.661 17.3246C90.8566 17.2251 91.0173 17.081 91.1433 16.892C91.2725 16.6998 91.3571 16.4695 91.3968 16.201H93.3954C93.3623 16.7843 93.2032 17.2981 92.9181 17.7422C92.6364 18.183 92.247 18.5277 91.7498 18.7763C91.2527 19.0249 90.6644 19.1491 89.9849 19.1491ZM96.6705 16.8026L96.6754 14.2621H96.9837L99.4297 11.3636H101.861L98.5746 15.2017H98.0724L96.6705 16.8026ZM94.7514 19V8.81818H96.8693V19H94.7514ZM99.5241 19L97.277 15.674L98.6889 14.1776L102.005 19H99.5241ZM106.607 14.9183C106.607 13.6854 106.771 12.5502 107.1 11.5128C107.431 10.4754 107.936 9.5142 108.616 8.62926H110.639C110.381 8.95739 110.141 9.35843 109.919 9.83239C109.696 10.303 109.503 10.8201 109.337 11.3835C109.171 11.947 109.042 12.5303 108.949 13.1335C108.856 13.7334 108.81 14.3284 108.81 14.9183C108.81 15.7038 108.889 16.4976 109.048 17.2997C109.211 18.0985 109.43 18.8409 109.705 19.527C109.983 20.2131 110.295 20.7749 110.639 21.2124H108.616C107.936 20.3274 107.431 19.3662 107.1 18.3288C106.771 17.2914 106.607 16.1546 106.607 14.9183ZM113.663 19H111.357L114.871 8.81818H117.646L121.156 19H118.849L116.298 11.1449H116.219L113.663 19ZM113.519 14.9979H118.968V16.6783H113.519V14.9979ZM122.341 19V11.3636H124.395V12.696H124.474C124.613 12.2221 124.847 11.8641 125.175 11.6222C125.503 11.3769 125.881 11.2543 126.309 11.2543C126.415 11.2543 126.529 11.2609 126.652 11.2741C126.774 11.2874 126.882 11.3056 126.975 11.3288V13.2081C126.875 13.1783 126.738 13.1518 126.562 13.1286C126.386 13.1054 126.226 13.0938 126.08 13.0938C125.768 13.0938 125.49 13.1617 125.245 13.2976C125.003 13.4302 124.81 13.6158 124.668 13.8544C124.529 14.093 124.459 14.3681 124.459 14.6797V19H122.341ZM128.07 19V11.3636H130.088V12.7109H130.178C130.337 12.2635 130.602 11.9105 130.973 11.652C131.344 11.3935 131.789 11.2642 132.306 11.2642C132.829 11.2642 133.275 11.3951 133.643 11.657C134.011 11.9155 134.256 12.2668 134.379 12.7109H134.458C134.614 12.2734 134.896 11.9238 135.303 11.6619C135.714 11.3968 136.2 11.2642 136.76 11.2642C137.473 11.2642 138.051 11.4912 138.495 11.9453C138.943 12.3961 139.166 13.0357 139.166 13.8643V19H137.053V14.282C137.053 13.8577 136.941 13.5395 136.715 13.3274C136.49 13.1153 136.208 13.0092 135.87 13.0092C135.486 13.0092 135.186 13.1319 134.97 13.3771C134.755 13.6191 134.647 13.9389 134.647 14.3366V19H132.594V14.2372C132.594 13.8627 132.486 13.5644 132.271 13.3423C132.059 13.1203 131.779 13.0092 131.431 13.0092C131.195 13.0092 130.983 13.0689 130.794 13.1882C130.609 13.3042 130.461 13.4683 130.352 13.6804C130.242 13.8892 130.188 14.1345 130.188 14.4162V19H128.07ZM144.409 14.9183C144.409 16.1546 144.243 17.2914 143.912 18.3288C143.584 19.3662 143.08 20.3274 142.4 21.2124H140.377C140.635 20.8842 140.876 20.4832 141.098 20.0092C141.32 19.5353 141.514 19.0182 141.68 18.4581C141.845 17.8946 141.974 17.3113 142.067 16.7081C142.16 16.1049 142.206 15.5083 142.206 14.9183C142.206 14.1328 142.125 13.3407 141.963 12.5419C141.804 11.7398 141.585 10.9974 141.307 10.3146C141.032 9.62855 140.722 9.06676 140.377 8.62926H142.4C143.08 9.5142 143.584 10.4754 143.912 11.5128C144.243 12.5502 144.409 13.6854 144.409 14.9183Z" fill="black"/>
<defs>
<linearGradient id="paint0_linear_1_23" x1="102" y1="2" x2="102" y2="25" gradientUnits="userSpaceOnUse">
<stop stop-color="#FFE4B2"/>
<stop offset="1" stop-color="#F79800"/>
</linearGradient>
<linearGradient id="paint1_linear_1_23" x1="158.553" y1="23" x2="162.936" y2="4.6308" gradientUnits="userSpaceOnUse">
<stop stop-color="#151443"/>
<stop offset="1" stop-color="#6D80B2"/>
</linearGradient>
</defs>
</svg>
