<svg width="174" height="27" viewBox="0 0 174 27" fill="none" xmlns="http://www.w3.org/2000/svg">
<path fill-rule="evenodd" clip-rule="evenodd" d="M2 5V22C2 23.66 3.34 25 5 25H160.5C166.848 25 172 19.85 172 13.5C172 7.148 166.852 2 160.5 2H5C3.34 2 2 3.34 2 5Z" fill="url(#paint0_linear_1_22)"/>
<path fill-rule="evenodd" clip-rule="evenodd" d="M2 5V22C2 23.66 3.34 25 5 25H160.5C166.848 25 172 19.85 172 13.5C172 7.148 166.852 2 160.5 2H5C3.34 2 2 3.34 2 5ZM0 5C0 2.238 2.233 0 5 0H160.5C167.956 0 174 6.043 174 13.5C174 20.956 167.95 27 160.5 27H5C2.238 27 0 24.768 0 22V13.5V5Z" fill="#0058A5"/>
<path d="M159.5 23C164.747 23 169 18.7467 169 13.5C169 8.25329 164.747 4 159.5 4C154.253 4 150 8.25329 150 13.5C150 18.7467 154.253 23 159.5 23Z" fill="url(#paint1_linear_1_22)"/>
<path fill-rule="evenodd" clip-rule="evenodd" d="M163 13.5L158 18V9" fill="white"/>
<path d="M10.3791 19V8.81818H12.5318V17.2251H16.8968V19H10.3791ZM20.4602 19.1442C19.973 19.1442 19.5388 19.0597 19.1577 18.8906C18.7765 18.7183 18.4749 18.4647 18.2528 18.13C18.0341 17.7919 17.9247 17.371 17.9247 16.8672C17.9247 16.4429 18.0026 16.0866 18.1584 15.7983C18.3142 15.5099 18.5263 15.2779 18.7947 15.1023C19.0632 14.9266 19.3681 14.794 19.7095 14.7045C20.0542 14.6151 20.4155 14.5521 20.7933 14.5156C21.2375 14.4692 21.5954 14.4261 21.8672 14.3864C22.139 14.3433 22.3362 14.2803 22.4588 14.1974C22.5814 14.1146 22.6428 13.992 22.6428 13.8295V13.7997C22.6428 13.4848 22.5433 13.2412 22.3445 13.0689C22.1489 12.8965 21.8705 12.8104 21.5092 12.8104C21.1281 12.8104 20.8248 12.8949 20.5994 13.0639C20.3741 13.2296 20.2249 13.4384 20.152 13.6903L18.1932 13.5312C18.2926 13.0672 18.4882 12.6662 18.7798 12.3281C19.0715 11.9867 19.4477 11.7249 19.9084 11.5426C20.3724 11.357 20.9093 11.2642 21.5192 11.2642C21.9434 11.2642 22.3494 11.3139 22.7372 11.4134C23.1283 11.5128 23.4747 11.6669 23.7763 11.8757C24.0812 12.0845 24.3215 12.353 24.4972 12.6811C24.6728 13.0059 24.7607 13.3954 24.7607 13.8494V19H22.7521V17.9411H22.6925C22.5698 18.1797 22.4058 18.3902 22.2003 18.5724C21.9948 18.7514 21.7479 18.8923 21.4595 18.995C21.1712 19.0945 20.8381 19.1442 20.4602 19.1442ZM21.0668 17.6825C21.3783 17.6825 21.6534 17.6212 21.892 17.4986C22.1307 17.3726 22.3179 17.2036 22.4538 16.9915C22.5897 16.7794 22.6577 16.5391 22.6577 16.2706V15.4602C22.5914 15.5033 22.5002 15.5431 22.3842 15.5795C22.2715 15.6127 22.1439 15.6442 22.0014 15.674C21.8589 15.7005 21.7164 15.7254 21.5739 15.7486C21.4313 15.7685 21.3021 15.7867 21.1861 15.8033C20.9375 15.8397 20.7204 15.8977 20.5348 15.9773C20.3492 16.0568 20.205 16.1645 20.1023 16.3004C19.9995 16.433 19.9482 16.5987 19.9482 16.7976C19.9482 17.0859 20.0526 17.3063 20.2614 17.4588C20.4735 17.608 20.742 17.6825 21.0668 17.6825ZM31.3008 15.7486V11.3636H33.4187V19H31.3853V17.6129H31.3058C31.1334 18.0604 30.8467 18.42 30.4457 18.6918C30.0479 18.9635 29.5624 19.0994 28.989 19.0994C28.4786 19.0994 28.0295 18.9834 27.6417 18.7514C27.2539 18.5194 26.9506 18.1896 26.7319 17.7621C26.5165 17.3345 26.4071 16.8224 26.4038 16.2259V11.3636H28.5217V15.848C28.525 16.2988 28.646 16.6551 28.8846 16.9169C29.1232 17.1787 29.4431 17.3097 29.8441 17.3097C30.0993 17.3097 30.338 17.2517 30.56 17.1357C30.7821 17.0163 30.9611 16.8407 31.0969 16.6087C31.2362 16.3767 31.3041 16.09 31.3008 15.7486ZM37.2306 14.5852V19H35.1127V11.3636H37.1312V12.7109H37.2207C37.3897 12.2668 37.6731 11.9155 38.0708 11.657C38.4686 11.3951 38.9508 11.2642 39.5176 11.2642C40.0479 11.2642 40.5102 11.3802 40.9047 11.6122C41.2991 11.8442 41.6056 12.1757 41.8244 12.6065C42.0431 13.0341 42.1525 13.5445 42.1525 14.1378V19H40.0346V14.5156C40.0379 14.0483 39.9186 13.6837 39.6767 13.4219C39.4347 13.1567 39.1016 13.0241 38.6774 13.0241C38.3923 13.0241 38.1404 13.0855 37.9217 13.2081C37.7063 13.3307 37.5372 13.5097 37.4146 13.745C37.2953 13.977 37.234 14.2571 37.2306 14.5852ZM47.272 19.1491C46.4898 19.1491 45.817 18.9834 45.2536 18.652C44.6934 18.3172 44.2625 17.8532 43.9609 17.2599C43.6626 16.6667 43.5135 15.9839 43.5135 15.2116C43.5135 14.4295 43.6643 13.7434 43.9659 13.1534C44.2708 12.5601 44.7034 12.0978 45.2635 11.7663C45.8236 11.4316 46.4898 11.2642 47.2621 11.2642C47.9283 11.2642 48.5116 11.3852 49.0121 11.6271C49.5125 11.8691 49.9086 12.2088 50.2003 12.6463C50.492 13.0838 50.6527 13.5975 50.6825 14.1875H48.6839C48.6276 13.8063 48.4785 13.4998 48.2365 13.2678C47.9979 13.0324 47.6847 12.9148 47.2969 12.9148C46.9688 12.9148 46.6821 13.0043 46.4368 13.1832C46.1948 13.3589 46.0059 13.6158 45.87 13.9538C45.7341 14.2919 45.6662 14.7012 45.6662 15.1818C45.6662 15.669 45.7325 16.0833 45.8651 16.4247C46.0009 16.7661 46.1915 17.0263 46.4368 17.2053C46.6821 17.3842 46.9688 17.4737 47.2969 17.4737C47.5388 17.4737 47.7559 17.424 47.9482 17.3246C48.1437 17.2251 48.3045 17.081 48.4304 16.892C48.5597 16.6998 48.6442 16.4695 48.6839 16.201H50.6825C50.6494 16.7843 50.4903 17.2981 50.2053 17.7422C49.9235 18.183 49.5341 18.5277 49.0369 18.7763C48.5398 19.0249 47.9515 19.1491 47.272 19.1491ZM54.1564 14.5852V19H52.0385V8.81818H54.0968V12.7109H54.1863C54.3586 12.2602 54.637 11.9072 55.0215 11.652C55.406 11.3935 55.8882 11.2642 56.4682 11.2642C56.9985 11.2642 57.4609 11.3802 57.8553 11.6122C58.253 11.8409 58.5613 12.1707 58.78 12.6016C59.0021 13.0291 59.1114 13.5412 59.1081 14.1378V19H56.9902V14.5156C56.9935 14.045 56.8742 13.6787 56.6323 13.4169C56.3936 13.1551 56.0589 13.0241 55.628 13.0241C55.3397 13.0241 55.0845 13.0855 54.8624 13.2081C54.6436 13.3307 54.4713 13.5097 54.3453 13.745C54.2227 13.977 54.1597 14.2571 54.1564 14.5852ZM69.5783 11.7464C69.5385 11.3454 69.3678 11.0339 69.0662 10.8118C68.7646 10.5897 68.3553 10.4787 67.8382 10.4787C67.4869 10.4787 67.1903 10.5284 66.9483 10.6278C66.7064 10.724 66.5208 10.8582 66.3915 11.0305C66.2656 11.2029 66.2026 11.3984 66.2026 11.6172C66.196 11.7995 66.2341 11.9586 66.3169 12.0945C66.4031 12.2304 66.5208 12.348 66.6699 12.4474C66.8191 12.5436 66.9914 12.6281 67.187 12.701C67.3825 12.7706 67.5913 12.8303 67.8134 12.88L68.7282 13.0987C69.1723 13.1982 69.58 13.3307 69.9512 13.4964C70.3224 13.6622 70.6439 13.866 70.9157 14.108C71.1874 14.3499 71.3979 14.6349 71.5471 14.9631C71.6995 15.2912 71.7774 15.6674 71.7807 16.0916C71.7774 16.7147 71.6183 17.255 71.3034 17.7124C70.9919 18.1664 70.5411 18.5194 69.9512 18.7713C69.3645 19.0199 68.6569 19.1442 67.8283 19.1442C67.0063 19.1442 66.2904 19.0182 65.6806 18.7663C65.074 18.5144 64.6001 18.1416 64.2587 17.6477C63.9206 17.1506 63.7433 16.5357 63.7267 15.8033H65.8098C65.833 16.1446 65.9308 16.4297 66.1032 16.6584C66.2788 16.8838 66.5125 17.0545 66.8042 17.1705C67.0991 17.2831 67.4322 17.3395 67.8034 17.3395C68.168 17.3395 68.4846 17.2865 68.753 17.1804C69.0248 17.0743 69.2353 16.9268 69.3844 16.7379C69.5336 16.549 69.6081 16.3319 69.6081 16.0866C69.6081 15.858 69.5402 15.6657 69.4043 15.5099C69.2717 15.3542 69.0762 15.2216 68.8176 15.1122C68.5624 15.0028 68.2492 14.9034 67.878 14.8139L66.7694 14.5355C65.9109 14.3267 65.2331 14.0002 64.736 13.5561C64.2388 13.112 63.9919 12.5137 63.9952 11.7614C63.9919 11.1449 64.156 10.6063 64.4874 10.1456C64.8221 9.6849 65.2812 9.32528 65.8645 9.06676C66.4479 8.80824 67.1107 8.67898 67.8532 8.67898C68.6088 8.67898 69.2684 8.80824 69.8319 9.06676C70.3986 9.32528 70.8394 9.6849 71.1543 10.1456C71.4692 10.6063 71.6316 11.1399 71.6415 11.7464H69.5783ZM77.2507 11.3636V12.9545H72.652V11.3636H77.2507ZM73.696 9.53409H75.8139V16.6534C75.8139 16.849 75.8438 17.0014 75.9034 17.1108C75.9631 17.2169 76.0459 17.2914 76.152 17.3345C76.2614 17.3776 76.3873 17.3991 76.5298 17.3991C76.6293 17.3991 76.7287 17.3909 76.8281 17.3743C76.9276 17.3544 77.0038 17.3395 77.0568 17.3295L77.3899 18.9055C77.2839 18.9387 77.1347 18.9768 76.9425 19.0199C76.7502 19.0663 76.5166 19.0945 76.2415 19.1044C75.7311 19.1243 75.2836 19.0563 74.8991 18.9006C74.518 18.7448 74.2214 18.5028 74.0092 18.1747C73.7971 17.8466 73.6927 17.4323 73.696 16.9318V9.53409ZM80.8079 19.1442C80.3207 19.1442 79.8865 19.0597 79.5053 18.8906C79.1242 18.7183 78.8226 18.4647 78.6005 18.13C78.3817 17.7919 78.2724 17.371 78.2724 16.8672C78.2724 16.4429 78.3503 16.0866 78.506 15.7983C78.6618 15.5099 78.8739 15.2779 79.1424 15.1023C79.4109 14.9266 79.7158 14.794 80.0572 14.7045C80.4019 14.6151 80.7631 14.5521 81.141 14.5156C81.5851 14.4692 81.9431 14.4261 82.2148 14.3864C82.4866 14.3433 82.6838 14.2803 82.8065 14.1974C82.9291 14.1146 82.9904 13.992 82.9904 13.8295V13.7997C82.9904 13.4848 82.891 13.2412 82.6921 13.0689C82.4966 12.8965 82.2182 12.8104 81.8569 12.8104C81.4757 12.8104 81.1725 12.8949 80.9471 13.0639C80.7217 13.2296 80.5726 13.4384 80.4996 13.6903L78.5408 13.5312C78.6403 13.0672 78.8358 12.6662 79.1275 12.3281C79.4192 11.9867 79.7953 11.7249 80.256 11.5426C80.7201 11.357 81.257 11.2642 81.8668 11.2642C82.2911 11.2642 82.6971 11.3139 83.0849 11.4134C83.476 11.5128 83.8223 11.6669 84.1239 11.8757C84.4289 12.0845 84.6692 12.353 84.8448 12.6811C85.0205 13.0059 85.1083 13.3954 85.1083 13.8494V19H83.0998V17.9411H83.0401C82.9175 18.1797 82.7534 18.3902 82.5479 18.5724C82.3424 18.7514 82.0955 18.8923 81.8072 18.995C81.5188 19.0945 81.1857 19.1442 80.8079 19.1442ZM81.4144 17.6825C81.726 17.6825 82.0011 17.6212 82.2397 17.4986C82.4783 17.3726 82.6656 17.2036 82.8015 16.9915C82.9374 16.7794 83.0053 16.5391 83.0053 16.2706V15.4602C82.939 15.5033 82.8479 15.5431 82.7319 15.5795C82.6192 15.6127 82.4916 15.6442 82.3491 15.674C82.2066 15.7005 82.064 15.7254 81.9215 15.7486C81.779 15.7685 81.6497 15.7867 81.5337 15.8033C81.2852 15.8397 81.0681 15.8977 80.8825 15.9773C80.6969 16.0568 80.5527 16.1645 80.4499 16.3004C80.3472 16.433 80.2958 16.5987 80.2958 16.7976C80.2958 17.0859 80.4002 17.3063 80.609 17.4588C80.8211 17.608 81.0896 17.6825 81.4144 17.6825ZM90.2017 19.1491C89.4195 19.1491 88.7467 18.9834 88.1832 18.652C87.6231 18.3172 87.1922 17.8532 86.8906 17.2599C86.5923 16.6667 86.4432 15.9839 86.4432 15.2116C86.4432 14.4295 86.594 13.7434 86.8956 13.1534C87.2005 12.5601 87.633 12.0978 88.1932 11.7663C88.7533 11.4316 89.4195 11.2642 90.1918 11.2642C90.858 11.2642 91.4413 11.3852 91.9418 11.6271C92.4422 11.8691 92.8383 12.2088 93.13 12.6463C93.4216 13.0838 93.5824 13.5975 93.6122 14.1875H91.6136C91.5573 13.8063 91.4081 13.4998 91.1662 13.2678C90.9276 13.0324 90.6143 12.9148 90.2266 12.9148C89.8984 12.9148 89.6117 13.0043 89.3665 13.1832C89.1245 13.3589 88.9356 13.6158 88.7997 13.9538C88.6638 14.2919 88.5959 14.7012 88.5959 15.1818C88.5959 15.669 88.6622 16.0833 88.7947 16.4247C88.9306 16.7661 89.1212 17.0263 89.3665 17.2053C89.6117 17.3842 89.8984 17.4737 90.2266 17.4737C90.4685 17.4737 90.6856 17.424 90.8778 17.3246C91.0734 17.2251 91.2341 17.081 91.3601 16.892C91.4893 16.6998 91.5739 16.4695 91.6136 16.201H93.6122C93.5791 16.7843 93.42 17.2981 93.1349 17.7422C92.8532 18.183 92.4638 18.5277 91.9666 18.7763C91.4695 19.0249 90.8812 19.1491 90.2017 19.1491ZM96.8873 16.8026L96.8922 14.2621H97.2005L99.6465 11.3636H102.078L98.7914 15.2017H98.2892L96.8873 16.8026ZM94.9682 19V8.81818H97.0861V19H94.9682ZM99.7409 19L97.4938 15.674L98.9057 14.1776L102.222 19H99.7409ZM106.824 14.9183C106.824 13.6854 106.988 12.5502 107.316 11.5128C107.648 10.4754 108.153 9.5142 108.833 8.62926H110.856C110.598 8.95739 110.357 9.35843 110.135 9.83239C109.913 10.303 109.719 10.8201 109.554 11.3835C109.388 11.947 109.259 12.5303 109.166 13.1335C109.073 13.7334 109.027 14.3284 109.027 14.9183C109.027 15.7038 109.106 16.4976 109.265 17.2997C109.428 18.0985 109.646 18.8409 109.922 19.527C110.2 20.2131 110.511 20.7749 110.856 21.2124H108.833C108.153 20.3274 107.648 19.3662 107.316 18.3288C106.988 17.2914 106.824 16.1546 106.824 14.9183ZM113.855 11.3636L115.257 14.0334L116.694 11.3636H118.867L116.654 15.1818L118.926 19H116.764L115.257 16.3601L113.776 19H111.588L113.855 15.1818L111.668 11.3636H113.855ZM123.903 19.1392C123.137 19.1392 122.456 19.0149 121.86 18.7663C121.266 18.5144 120.801 18.1714 120.463 17.7372C120.124 17.303 119.955 16.8108 119.955 16.2607C119.955 15.8364 120.052 15.447 120.244 15.0923C120.439 14.7344 120.704 14.4377 121.039 14.2024C121.374 13.9638 121.749 13.8113 122.163 13.745V13.6754C121.619 13.5661 121.178 13.3026 120.84 12.8849C120.502 12.464 120.333 11.9751 120.333 11.4183C120.333 10.8913 120.487 10.4223 120.796 10.0114C121.104 9.59706 121.526 9.27225 122.063 9.03693C122.604 8.7983 123.217 8.67898 123.903 8.67898C124.589 8.67898 125.2 8.7983 125.737 9.03693C126.278 9.27557 126.702 9.60204 127.01 10.0163C127.318 10.4273 127.474 10.8946 127.477 11.4183C127.474 11.9785 127.302 12.4673 126.96 12.8849C126.619 13.3026 126.182 13.5661 125.648 13.6754V13.745C126.056 13.8113 126.425 13.9638 126.757 14.2024C127.091 14.4377 127.356 14.7344 127.552 15.0923C127.751 15.447 127.852 15.8364 127.855 16.2607C127.852 16.8108 127.681 17.303 127.343 17.7372C127.005 18.1714 126.538 18.5144 125.941 18.7663C125.348 19.0149 124.669 19.1392 123.903 19.1392ZM123.903 17.5582C124.244 17.5582 124.543 17.4969 124.798 17.3743C125.053 17.2483 125.252 17.076 125.394 16.8572C125.54 16.6352 125.613 16.38 125.613 16.0916C125.613 15.7966 125.539 15.5365 125.389 15.3111C125.24 15.0824 125.038 14.9034 124.783 14.7741C124.528 14.6416 124.234 14.5753 123.903 14.5753C123.575 14.5753 123.281 14.6416 123.023 14.7741C122.764 14.9034 122.561 15.0824 122.411 15.3111C122.266 15.5365 122.193 15.7966 122.193 16.0916C122.193 16.38 122.264 16.6352 122.406 16.8572C122.549 17.076 122.749 17.2483 123.008 17.3743C123.267 17.4969 123.565 17.5582 123.903 17.5582ZM123.903 13.0092C124.188 13.0092 124.441 12.9512 124.664 12.8352C124.886 12.7192 125.06 12.5585 125.186 12.353C125.311 12.1475 125.374 11.9105 125.374 11.642C125.374 11.3769 125.311 11.1449 125.186 10.946C125.06 10.7438 124.887 10.5864 124.669 10.4737C124.45 10.3577 124.195 10.2997 123.903 10.2997C123.615 10.2997 123.359 10.3577 123.137 10.4737C122.915 10.5864 122.741 10.7438 122.615 10.946C122.493 11.1449 122.431 11.3769 122.431 11.642C122.431 11.9105 122.494 12.1475 122.62 12.353C122.746 12.5585 122.92 12.7192 123.142 12.8352C123.364 12.9512 123.618 13.0092 123.903 13.0092ZM133.268 19.1392C132.744 19.1359 132.239 19.0481 131.752 18.8757C131.268 18.7034 130.834 18.4233 130.449 18.0355C130.065 17.6477 129.76 17.134 129.534 16.4943C129.312 15.8546 129.201 15.0691 129.201 14.1378C129.205 13.2827 129.302 12.5187 129.495 11.8459C129.69 11.1697 129.969 10.5964 130.33 10.1257C130.694 9.65507 131.13 9.29711 131.637 9.05185C132.145 8.80327 132.713 8.67898 133.343 8.67898C134.022 8.67898 134.622 8.81155 135.142 9.0767C135.663 9.33854 136.08 9.69484 136.395 10.1456C136.713 10.5964 136.906 11.1018 136.972 11.6619H134.849C134.766 11.3073 134.592 11.0289 134.327 10.8267C134.062 10.6245 133.734 10.5234 133.343 10.5234C132.68 10.5234 132.176 10.8118 131.831 11.3885C131.49 11.9652 131.316 12.7491 131.309 13.7401H131.379C131.531 13.4384 131.737 13.1816 131.995 12.9695C132.257 12.754 132.554 12.59 132.885 12.4773C133.22 12.3613 133.573 12.3033 133.944 12.3033C134.547 12.3033 135.084 12.4458 135.555 12.7308C136.026 13.0125 136.397 13.4003 136.669 13.8942C136.94 14.388 137.076 14.9531 137.076 15.5895C137.076 16.2789 136.916 16.892 136.594 17.429C136.276 17.9659 135.83 18.3868 135.257 18.6918C134.687 18.9934 134.024 19.1425 133.268 19.1392ZM133.258 17.4489C133.59 17.4489 133.886 17.3693 134.148 17.2102C134.41 17.0511 134.615 16.8357 134.765 16.5639C134.914 16.2921 134.988 15.9872 134.988 15.6491C134.988 15.3111 134.914 15.0078 134.765 14.7393C134.619 14.4709 134.417 14.2571 134.158 14.098C133.9 13.9389 133.605 13.8594 133.273 13.8594C133.025 13.8594 132.794 13.9058 132.582 13.9986C132.373 14.0914 132.189 14.2206 132.03 14.3864C131.874 14.5521 131.752 14.7443 131.662 14.9631C131.573 15.1785 131.528 15.4089 131.528 15.6541C131.528 15.9822 131.603 16.2822 131.752 16.554C131.904 16.8258 132.11 17.0429 132.368 17.2053C132.63 17.3677 132.927 17.4489 133.258 17.4489ZM142.192 14.9183C142.192 16.1546 142.026 17.2914 141.695 18.3288C141.367 19.3662 140.863 20.3274 140.184 21.2124H138.16C138.419 20.8842 138.659 20.4832 138.881 20.0092C139.103 19.5353 139.297 19.0182 139.463 18.4581C139.628 17.8946 139.758 17.3113 139.85 16.7081C139.943 16.1049 139.99 15.5083 139.99 14.9183C139.99 14.1328 139.908 13.3407 139.746 12.5419C139.587 11.7398 139.368 10.9974 139.09 10.3146C138.815 9.62855 138.505 9.06676 138.16 8.62926H140.184C140.863 9.5142 141.367 10.4754 141.695 11.5128C142.026 12.5502 142.192 13.6854 142.192 14.9183Z" fill="black"/>
<defs>
<linearGradient id="paint0_linear_1_22" x1="102" y1="2" x2="102" y2="25" gradientUnits="userSpaceOnUse">
<stop stop-color="#FFE4B2"/>
<stop offset="1" stop-color="#F79800"/>
</linearGradient>
<linearGradient id="paint1_linear_1_22" x1="158.553" y1="23" x2="162.936" y2="4.6308" gradientUnits="userSpaceOnUse">
<stop stop-color="#151443"/>
<stop offset="1" stop-color="#6D80B2"/>
</linearGradient>
</defs>
</svg>
